<?xml version="1.0" encoding="UTF-8" standalone="no"?>
<svg width="25px" height="22px" viewBox="0 0 25 22" version="1.1" xmlns="http://www.w3.org/2000/svg" xmlns:xlink="http://www.w3.org/1999/xlink">
    <!-- Generator: Sketch Beta 40.3 (33838) - http://www.bohemiancoding.com/sketch -->
    <title>noun_619631_cc</title>
    <desc>Created with Sketch Beta.</desc>
    <defs></defs>
    <g id="Version-3" stroke="none" stroke-width="1" fill="none" fill-rule="evenodd">
        <g id="05-Q1-Answered" transform="translate(-1362.000000, -117.000000)" fill="#FFFFFF">
            <g id="noun_619631_cc" transform="translate(1362.000000, 117.000000)">
                <path d="M12.5071281,21.898 L1.76573201,11.0586454 C-0.69412304,8.4104456 -0.566014647,4.25300943 2.03846956,1.77660696 C3.24535497,0.630900688 4.82062446,0 6.47501973,0 C8.25781323,0 9.98003059,0.753152355 11.2002485,2.06625839 L12.5120553,3.47874887 L13.8224129,2.06655156 C15.0429207,0.753152355 16.765138,0.000293169465 18.5482214,0.000293169465 C20.2023268,0.000293169465 21.778176,0.630900688 22.9844817,1.77660696 C25.5883862,4.25447527 25.7164946,8.41161828 23.2693924,11.0445732 L12.5071281,21.898 L12.5071281,21.898 Z M6.47501973,1.17297103 C5.11654905,1.17297103 3.82300209,1.69100147 2.83204599,2.63178229 C0.693911111,4.66461935 0.588410081,8.07887094 2.59756705,10.2418753 L12.5074179,20.2418857 L22.4375574,10.2275099 C24.4336716,8.07945728 24.3281706,4.66549886 22.1900357,2.63090278 C21.1999492,1.6907083 19.9061124,1.17267786 18.5479315,1.17267786 C17.0619321,1.17267786 15.6837525,1.77514111 14.6670008,2.86924955 L12.5123451,5.19173805 L10.355081,2.86924955 C9.33890894,1.77543428 7.96072929,1.17297103 6.47501973,1.17297103 L6.47501973,1.17297103 Z" id="Shape"></path>
            </g>
        </g>
    </g>
</svg>