<?xml version="1.0" encoding="UTF-8" standalone="no"?>
<svg width="11px" height="15px" viewBox="0 0 11 15" version="1.1" xmlns="http://www.w3.org/2000/svg" xmlns:xlink="http://www.w3.org/1999/xlink">
    <!-- Generator: Sketch Beta 40.3 (33838) - http://www.bohemiancoding.com/sketch -->
    <title>noun_608842_cc</title>
    <desc>Created with Sketch Beta.</desc>
    <defs></defs>
    <g id="Version-3" stroke="none" stroke-width="1" fill="none" fill-rule="evenodd">
        <g id="04-Q1-Alt" transform="translate(-1349.000000, -47.000000)" fill="#C3C3C3">
            <g id="noun_608842_cc" transform="translate(1349.000000, 47.000000)">
                <path d="M5.5,14.9127907 C5.5,14.9127907 10.9166667,10.6306395 10.9166667,5.75581395 C10.9166667,2.62517442 8.4915,0.0872093023 5.5,0.0872093023 C2.5085,0.0872093023 0.0833333333,2.62517442 0.0833333333,5.75581395 C0.0833333333,10.6306395 5.5,14.9127907 5.5,14.9127907 L5.5,14.9127907 Z M2.58333333,5.75581395 C2.58333333,4.07005814 3.88916667,2.70348837 5.5,2.70348837 C7.11083333,2.70348837 8.41666667,4.07005814 8.41666667,5.75581395 C8.41666667,7.44156977 7.11083333,8.80813953 5.5,8.80813953 C3.88916667,8.80813953 2.58333333,7.44156977 2.58333333,5.75581395 L2.58333333,5.75581395 Z" id="Shape"></path>
            </g>
        </g>
    </g>
</svg>