<svg xmlns="http://www.w3.org/2000/svg" viewBox="0 0 89.51 56.89"><defs><style>.cls-1{opacity:0.56;}.cls-2{/*fill:#7ab6c8;*/fill:#fff;}</style></defs><title>Artboard 2</title><g id="export_final"><path class="cls-2" d="M86,51.07A44,44,0,0,1,68.58,36.8c-2.28-3.14-3.83-7.29-5.34-11.3-1.37-3.64-2.75-7.34-4.72-10.22C58,6.43,57.45,5.82,57,5.27c-1.12-1.29-4.71-3-8.54-2.8S41.22,4.2,40.05,6.16c-.17.27-.46.77-.76,3.43L31,9.36c-.4-4.13-.79-4.59-1.12-5C28.77,3,25.19,1.29,21.37,1.5c-3.61.18-7.2,1.82-8.35,3.8-.24.42-.87,1.51-1.28,12-1,1.54-1.94,3.27-3,5.18C5.06,29.1,2.66,40,2.16,52.49l4.29.17a101.81,101.81,0,0,1,.93-10.39L30,42h0a87.34,87.34,0,0,0-.91,10.14l4.28.12a86.55,86.55,0,0,1,2.26-16.9,29.89,29.89,0,0,0,2.26,3.85A50.17,50.17,0,0,0,54,53.89a13,13,0,0,0,6.38,1.68h.19l24.71-.36A2.14,2.14,0,0,0,86,51.07ZM43.79,8.31a8.71,8.71,0,0,1,4.86-1.56,9.3,9.3,0,0,1,4.87,1.19c.12.6.24,1.7.37,3a10.45,10.45,0,0,0-5.18-1.09h-.15l-5-.15C43.66,9.09,43.73,8.6,43.79,8.31ZM21.62,13.37h0l1.06,0c3.67.41,5.7,3.81,7.85,9.28l-16.84-.33C16.74,17.08,19.17,13.51,21.62,13.37Zm-4.82-6a8.26,8.26,0,0,1,4.78-1.61A9,9,0,0,1,26.38,7c.09.48.19,1.27.29,2.24l-3.6-.1a9.57,9.57,0,0,0-1.43,0h-.15a8,8,0,0,0-5.12,2.24A34.3,34.3,0,0,1,16.8,7.39ZM30.71,37.73h0L8.1,38h0A52.26,52.26,0,0,1,11.48,26.6l20.7.4c.26.7.52,1.4.77,2.1A67.89,67.89,0,0,0,30.71,37.73ZM60.46,51.28a8.89,8.89,0,0,1-4.4-1.12A45.89,45.89,0,0,1,41.39,36.78a33.83,33.83,0,0,1-3.55-7c-.11-.26-.21-.52-.31-.78,0,0,0,0,0,0l-.72-1.93-1.39-3.72c-.08-.2-.15-.4-.22-.6a41.34,41.34,0,0,0-3.82-8.14c-.22-.34-.46-.68-.7-1l.65,0,7.6.22,2.69.07,1.61,0h0l5.33.15a4.62,4.62,0,0,1,.91,0s0,0,0,0a6.94,6.94,0,0,1,1.25.21l.14,0a2.83,2.83,0,0,1,.41.14,6.09,6.09,0,0,1,1,.49c2.9,1.76,4.64,6,6.88,12l.15.4c1.55,4.15,3.19,8.41,5.73,11.91A49.75,49.75,0,0,0,77.19,51Z"/></g></svg>